<svg width="93" height="90" viewBox="0 0 93 90" fill="none" xmlns="http://www.w3.org/2000/svg">
<path d="M90.763 18.5783L73.8393 2" stroke="#F5B700" stroke-width="4" stroke-linecap="round"/>
<path d="M31.7028 74.8755C31.7028 74.8755 25.4859 74.8755 20.996 70.0401C16.506 65.2048 15.8152 60.3695 15.8152 60.3695L51.3895 24.7952C51.3895 24.7952 61.0726 33.8467 67.2771 39.6466L58.2972 48.6265" stroke="#F5B700" stroke-width="4" stroke-linecap="round"/>
<path d="M31.7028 74.8755L37.9197 68.6586" stroke="#F5B700" stroke-width="4" stroke-linecap="round"/>
<path d="M56.5703 27.9036L78.3293 6.83533" stroke="#F5B700" stroke-width="4" stroke-linecap="round"/>
<path d="M17.1968 66.5864L15.0015 68.7816C13.1619 70.6212 13.1619 73.6037 15.0015 75.4433V75.4433C16.8018 77.2436 19.7067 77.2876 21.5607 75.5427L24.1044 73.1486" stroke="#F5B700" stroke-width="4" stroke-linecap="round"/>
<path d="M14.4337 75.5663L2 88" stroke="#F5B700" stroke-width="4" stroke-linecap="round"/>
<path d="M44.1366 17.1968L77.2932 47.9357" stroke="#F5B700" stroke-width="4" stroke-linecap="round"/>
<path d="M62.7871 33.7751L84.5462 13.3976L78.3293 7.18073" stroke="#F5B700" stroke-width="4" stroke-linecap="round"/>
<path d="M39.9919 37.2289L47.245 44.482" stroke="#F5B700" stroke-width="4" stroke-linecap="round"/>
<path d="M32.3936 44.8273L39.6466 52.0803" stroke="#F5B700" stroke-width="4" stroke-linecap="round"/>
<path d="M56.7435 46.7089C58.1242 46.7089 59.2435 47.8282 59.2435 49.2089V54.2827C59.2435 56.2157 60.8105 57.7827 62.7435 57.7827H67.8173C69.198 57.7827 70.3173 58.9019 70.3173 60.2827V67.1049C70.3173 68.4857 69.198 69.6049 67.8173 69.6049H62.7435C60.8105 69.6049 59.2435 71.172 59.2435 73.1049V78.1787C59.2435 79.5595 58.1242 80.6787 56.7435 80.6787H49.9212C48.5405 80.6787 47.4212 79.5595 47.4212 78.1787V73.1049C47.4212 71.172 45.8542 69.6049 43.9212 69.6049H38.8474C37.4667 69.6049 36.3474 68.4857 36.3474 67.1049V60.2827C36.3474 58.9019 37.4667 57.7827 38.8474 57.7827H43.9212C45.8542 57.7827 47.4212 56.2157 47.4212 54.2827V49.2089C47.4212 47.8282 48.5405 46.7089 49.9212 46.7089H56.7435ZM68.9859 62.614C68.9859 60.681 67.4189 59.114 65.4859 59.114H60.4121C59.0314 59.114 57.9121 57.9947 57.9121 56.614V51.5402C57.9121 49.6072 56.3451 48.0402 54.4121 48.0402H52.2525C50.3195 48.0402 48.7525 49.6072 48.7525 51.5402V56.614C48.7525 57.9947 47.6332 59.114 46.2525 59.114H41.1787C39.2457 59.114 37.6787 60.681 37.6787 62.614V64.7736C37.6787 66.7066 39.2457 68.2736 41.1787 68.2736H46.2525C47.6332 68.2736 48.7525 69.3929 48.7525 70.7736V75.8474C48.7525 77.7804 50.3195 79.3474 52.2525 79.3474H54.4121C56.3451 79.3474 57.9121 77.7804 57.9121 75.8474V70.7736C57.9121 69.3929 59.0314 68.2736 60.4121 68.2736H65.4859C67.4189 68.2736 68.9859 66.7066 68.9859 64.7736V62.614Z" fill="#F5B700" stroke="#F5B700"/>
</svg>

