<?xml version="1.0" standalone="no"?>
<!DOCTYPE svg PUBLIC "-//W3C//DTD SVG 20010904//EN"
 "http://www.w3.org/TR/2001/REC-SVG-20010904/DTD/svg10.dtd">
<svg version="1.0" xmlns="http://www.w3.org/2000/svg"
 width="1440.000000pt" height="746.000000pt" viewBox="0 0 1440.000000 746.000000"
 preserveAspectRatio="xMidYMid meet">

<g transform="translate(0.000000,746.000000) scale(0.100000,-0.100000)"
fill="#000000" stroke="none">
<path d="M8775 5773 c-115 -21 -149 -31 -205 -61 -36 -20 -67 -39 -70 -42 -8
-10 -84 -45 -98 -45 -7 0 -23 -18 -35 -40 -12 -22 -39 -56 -59 -77 -33 -34
-42 -38 -87 -38 -28 0 -59 4 -69 9 -38 21 -123 41 -171 41 -27 0 -52 4 -55 9
-7 11 -63 21 -151 27 -38 3 -81 8 -95 13 -14 4 -43 6 -65 5 -116 -7 -216 -6
-228 4 -12 11 -131 10 -239 -2 -37 -4 -58 -2 -58 4 0 13 -332 14 -346 1 -5 -5
-54 -14 -109 -20 -121 -13 -164 -20 -190 -30 -11 -5 -33 -14 -48 -20 -15 -6
-46 -11 -68 -11 -35 0 -47 7 -95 55 -31 30 -64 55 -74 55 -10 0 -20 7 -24 15
-3 9 -18 15 -36 15 -16 0 -30 4 -30 8 0 5 -33 27 -74 51 -65 37 -85 43 -158
49 -82 8 -92 6 -208 -29 -60 -19 -200 -120 -200 -146 0 -4 -10 -20 -22 -34
-29 -32 -41 -50 -77 -120 -30 -60 -80 -115 -146 -164 -22 -16 -49 -37 -59 -47
-11 -10 -28 -20 -38 -24 -10 -3 -18 -10 -18 -15 0 -5 -7 -9 -15 -9 -8 0 -15
-4 -15 -10 0 -5 -9 -10 -20 -10 -11 0 -20 -4 -20 -8 0 -4 -13 -15 -29 -25 -16
-9 -66 -53 -111 -97 -46 -44 -91 -82 -101 -85 -11 -4 -19 -11 -19 -16 0 -5 -7
-9 -15 -9 -20 0 -93 -67 -111 -102 -8 -16 -12 -38 -9 -48 4 -13 -1 -23 -14
-32 -12 -7 -21 -18 -21 -25 0 -6 -4 -13 -9 -15 -4 -1 -11 -13 -15 -25 -6 -18
4 -33 52 -82 33 -33 81 -85 107 -115 26 -31 52 -56 57 -56 12 0 59 -48 76 -79
7 -12 22 -40 34 -62 26 -50 60 -82 123 -116 45 -24 61 -27 155 -28 l105 -1 29
-45 c17 -24 38 -52 49 -61 22 -19 47 -14 47 11 0 9 4 21 9 27 5 5 11 19 13 31
3 22 4 22 32 8 15 -8 53 -15 83 -15 105 0 173 -63 173 -160 0 -21 5 -42 10
-45 6 -3 10 -21 10 -38 0 -18 7 -60 15 -95 8 -34 16 -96 17 -137 2 -41 6 -75
11 -75 12 0 5 -103 -9 -125 -13 -20 -8 -80 15 -185 5 -25 7 -76 4 -113 -4 -46
-2 -71 5 -76 13 -8 42 -163 42 -222 0 -22 5 -39 10 -39 6 0 10 -6 10 -14 0
-17 32 -80 43 -84 4 -2 7 -8 7 -14 0 -6 11 -26 25 -44 14 -18 25 -37 25 -41 0
-5 16 -26 35 -47 19 -21 35 -42 35 -45 0 -4 9 -16 19 -28 11 -11 28 -40 39
-64 26 -55 115 -149 141 -149 11 0 23 -4 26 -10 3 -6 17 -10 30 -10 13 0 27
-4 30 -10 8 -13 45 -13 45 0 0 17 28 11 34 -7 3 -10 24 -25 45 -34 33 -14 41
-15 45 -3 8 21 60 17 86 -6 21 -18 25 -19 32 -5 11 18 32 20 25 2 -3 -7 6 -24
20 -37 13 -12 22 -29 19 -37 -4 -9 -1 -11 5 -7 7 4 10 1 7 -7 -10 -30 46 -57
69 -33 15 14 17 14 25 0 14 -25 35 -8 47 39 15 59 14 75 -5 75 -18 0 -53 38
-54 58 0 6 -3 12 -7 12 -15 0 -34 53 -23 64 7 7 10 6 10 -3 0 -11 3 -11 15 -1
11 9 22 9 50 -1 19 -7 35 -17 35 -21 0 -4 16 -8 35 -8 19 0 35 4 35 9 0 20 65
18 106 -4 23 -12 50 -25 60 -28 11 -4 27 -12 36 -19 15 -10 22 -10 39 0 16 10
28 11 55 2 43 -15 193 -18 202 -5 16 23 73 45 115 45 25 0 47 5 49 11 2 7 34
11 83 10 44 0 109 5 144 11 55 11 65 10 75 -3 6 -9 16 -14 22 -12 6 2 24 -3
40 -12 16 -8 25 -15 19 -15 -5 0 -27 -16 -48 -35 -21 -19 -43 -33 -48 -29 -10
6 -77 -31 -96 -54 -11 -13 -14 -12 -28 1 -14 15 -20 14 -63 -6 -52 -24 -72
-40 -72 -56 0 -6 -4 -11 -10 -11 -5 0 -10 -11 -10 -24 0 -43 -12 -86 -25 -86
-6 0 -19 18 -28 40 -8 22 -11 40 -6 40 5 0 9 9 9 20 0 15 -7 20 -26 20 -24 0
-25 -2 -13 -17 12 -15 12 -16 -6 -9 -55 22 -55 22 -55 -38 0 -31 -4 -56 -10
-56 -5 0 -10 23 -10 50 l0 50 -42 0 c-105 0 -187 6 -194 12 -4 5 -40 8 -81 8
-66 0 -73 -2 -73 -19 0 -11 -4 -23 -10 -26 -13 -8 -13 -145 0 -145 13 0 40
-54 40 -79 0 -10 -6 -22 -12 -24 -10 -4 -9 -8 2 -17 12 -9 11 -10 -6 -5 -12 3
-34 -1 -50 -10 -36 -19 -42 -19 -60 0 -23 23 -37 18 -30 -9 8 -32 -15 -50 -54
-43 -19 4 -34 1 -44 -9 -8 -8 -19 -14 -23 -13 -38 6 -83 -40 -83 -86 0 -29 5
-37 34 -50 28 -14 38 -14 55 -3 16 10 23 10 33 0 6 -6 20 -12 29 -12 22 0 34
-36 19 -55 -7 -8 -9 -26 -6 -40 4 -14 2 -25 -4 -25 -20 0 -22 -48 -4 -79 18
-31 43 -37 35 -10 -7 26 -6 34 4 39 6 3 14 -5 20 -17 5 -13 13 -23 17 -23 5 0
8 -6 8 -14 0 -8 14 -26 31 -40 24 -21 34 -24 45 -15 8 6 14 18 14 25 0 8 7 14
15 14 10 0 15 10 15 33 0 24 -6 35 -25 44 -22 10 -25 9 -25 -8 0 -10 -5 -19
-11 -19 -14 0 -89 76 -89 90 0 25 98 -8 101 -35 1 -5 4 1 8 15 7 23 11 25 56
22 27 -2 55 -11 64 -19 22 -22 19 -74 -7 -110 -12 -17 -22 -38 -22 -46 0 -8
-7 -20 -15 -27 -10 -8 -15 -30 -15 -65 0 -35 5 -57 15 -65 12 -10 15 -10 15 3
0 22 27 29 45 11 8 -9 15 -25 15 -36 l0 -21 18 21 c18 22 53 68 64 85 4 6 10
8 15 4 4 -4 2 -17 -5 -27 -18 -30 -16 -90 4 -90 9 0 14 6 12 12 -3 7 6 34 19
59 13 26 23 55 23 66 0 23 19 43 39 42 11 0 12 -2 4 -6 -18 -7 -16 -33 2 -33
26 0 145 112 145 136 0 8 5 14 10 14 6 0 10 6 10 14 0 7 7 19 15 26 12 10 15
10 15 -4 0 -9 8 -16 19 -16 20 0 34 30 47 102 5 32 12 39 50 55 43 18 59 36
48 54 -3 6 -14 7 -25 4 -13 -4 -19 -2 -19 9 0 9 5 16 10 16 6 0 10 7 10 15 0
8 -3 15 -8 15 -12 0 -54 -31 -80 -58 -13 -13 -26 -22 -29 -19 -3 3 6 16 20 29
23 22 32 55 29 101 -2 21 -25 22 -42 2 -15 -18 -62 -20 -59 -2 5 44 -2 54 -58
80 -54 23 -56 25 -26 26 17 1 35 -3 38 -9 3 -5 15 -10 25 -10 14 0 20 8 22 32
3 31 4 31 21 13 22 -22 26 -18 59 67 20 49 26 57 43 51 11 -3 28 -7 38 -8 10
-1 22 -6 26 -13 6 -10 54 -32 71 -32 9 0 10 9 12 67 1 35 14 44 21 16 2 -10 2
6 -1 35 -5 58 12 73 22 19 3 -19 13 -42 21 -53 14 -18 16 -18 29 -1 11 14 24
17 55 14 45 -4 71 -20 52 -31 -8 -5 -7 -15 3 -34 8 -17 10 -35 5 -47 -4 -11
-8 -23 -8 -27 -2 -15 44 -48 65 -48 13 0 26 -4 29 -10 11 -18 76 -10 127 15
56 28 67 38 88 80 8 17 18 32 21 35 3 3 14 30 24 60 10 30 21 60 25 65 4 6 10
24 13 40 9 48 27 118 36 140 5 11 13 31 19 45 6 14 13 50 16 82 3 31 15 77 26
103 11 26 20 58 20 71 0 14 4 34 10 44 5 10 13 44 16 76 4 33 12 62 18 67 8 5
7 10 -3 16 -11 7 -15 33 -15 108 0 107 5 122 59 176 19 19 35 44 35 55 0 10 8
30 19 43 20 27 81 166 81 187 0 7 11 37 25 65 13 29 25 68 27 87 1 19 5 37 8
40 8 7 50 98 50 109 0 5 6 14 14 20 8 7 16 31 19 54 9 71 25 155 31 165 3 5
12 44 21 87 12 56 23 84 38 97 12 10 27 22 34 28 7 5 17 10 23 10 5 0 10 5 10
10 0 6 27 10 60 10 57 0 60 1 60 25 0 26 41 55 77 55 10 0 32 9 50 19 25 16
49 20 118 19 84 -1 205 26 205 44 0 5 5 8 12 8 13 0 178 166 178 180 0 5 12
35 26 67 48 108 54 124 54 143 0 39 18 28 40 -23 12 -28 28 -65 35 -82 7 -16
18 -46 25 -65 38 -104 68 -149 89 -136 29 18 54 117 32 130 -4 3 -11 38 -14
78 -5 77 -8 67 64 226 16 34 29 68 29 74 0 6 6 19 13 27 17 20 47 115 47 148
0 13 -8 36 -17 51 -27 42 -96 112 -113 112 -14 0 -49 17 -215 103 -38 20 -74
37 -80 37 -5 0 -28 16 -50 35 -22 19 -43 35 -47 35 -5 0 -8 4 -8 10 0 20 -56
89 -80 100 -14 6 -41 25 -60 43 -19 18 -53 45 -75 62 -22 16 -49 37 -59 47
-11 10 -28 20 -38 24 -10 3 -18 10 -18 15 0 5 -7 9 -15 9 -8 0 -15 4 -15 9 0
5 -15 12 -34 15 -19 4 -36 10 -38 14 -7 16 -98 51 -151 57 -32 4 -60 11 -63
16 -5 9 -195 10 -239 2z m-1525 -295 c22 -2 40 -1 40 2 0 4 6 15 14 25 12 17
15 17 28 4 9 -8 19 -25 22 -37 4 -12 11 -22 16 -22 7 0 20 -48 20 -75 1 -30
-19 -108 -28 -117 -7 -7 -12 -20 -12 -30 0 -10 -4 -18 -10 -18 -6 0 -10 -29
-10 -66 0 -47 -5 -70 -16 -82 -14 -13 -16 -31 -11 -99 4 -72 3 -82 -9 -72 -13
10 -15 -5 -13 -109 1 -101 4 -122 16 -122 9 0 13 -6 10 -15 -4 -8 -1 -17 4
-21 6 -4 7 -10 2 -15 -6 -6 -4 -49 4 -106 9 -69 10 -106 3 -127 -13 -37 -13
-103 0 -111 15 -10 12 -25 -6 -25 -12 0 -14 -7 -9 -32 4 -18 11 -37 16 -43 16
-16 10 -22 -22 -23 -36 -1 -49 -10 -31 -21 7 -4 12 -14 10 -21 -5 -20 20 -23
25 -3 3 10 5 1 6 -19 1 -36 0 -37 -26 -32 -23 4 -30 0 -40 -22 -17 -36 -16
-54 1 -54 7 0 25 -9 39 -20 14 -11 35 -20 47 -20 18 0 21 4 17 21 -4 17 -3 19
6 10 6 -6 23 -11 38 -11 15 0 29 -7 33 -15 3 -9 0 -15 -9 -15 -11 0 -15 -12
-15 -45 0 -32 4 -45 14 -45 22 0 27 -28 8 -46 -31 -32 -22 -144 12 -144 13 0
56 -45 56 -58 0 -11 -8 -13 -34 -8 -23 5 -50 0 -86 -14 -46 -18 -66 -20 -149
-14 -75 5 -106 3 -141 -10 -25 -9 -57 -16 -71 -16 -14 0 -34 -8 -45 -17 -10
-10 -41 -35 -67 -56 -26 -21 -47 -44 -47 -52 0 -7 -4 -15 -8 -17 -4 -1 -25
-38 -45 -80 -34 -68 -38 -85 -39 -157 -1 -44 4 -86 9 -93 6 -7 14 -35 17 -61
4 -26 15 -64 23 -85 16 -37 20 -65 24 -172 2 -37 8 -60 20 -70 10 -8 20 -34
24 -57 6 -36 3 -46 -17 -66 -13 -14 -28 -33 -34 -43 -16 -28 -33 -28 -40 0 -6
27 -13 29 -91 26 -39 -1 -41 0 -36 22 3 13 12 30 20 39 11 14 11 18 -1 28 -11
10 -17 8 -28 -8 -15 -21 -67 -46 -76 -36 -3 3 0 5 6 5 7 0 12 7 12 15 0 8 11
22 25 31 32 21 19 39 -36 54 l-39 11 6 42 c8 52 20 67 50 67 17 0 24 6 24 20
0 11 -7 20 -15 20 -8 0 -15 -5 -15 -11 0 -6 -8 -9 -17 -7 -13 2 -17 11 -15 30
2 15 -4 41 -13 59 -13 25 -15 37 -6 56 15 33 14 60 -4 67 -25 9 -17 29 9 24
37 -7 54 7 39 32 -16 24 -17 86 -3 95 8 5 8 11 0 20 -8 9 -8 14 1 17 7 2 12
23 12 48 0 25 4 48 10 51 5 4 14 29 19 55 5 27 12 63 15 79 3 17 14 42 25 57
11 16 17 32 14 36 -3 5 4 15 15 22 10 8 19 19 19 25 0 6 11 22 25 37 14 15 25
36 25 47 0 11 15 32 34 48 18 15 38 38 45 50 6 12 23 34 36 49 14 15 25 34 25
43 0 9 9 23 20 31 11 8 20 20 20 27 0 6 10 13 23 15 26 4 37 45 15 60 -10 7
-9 8 5 4 9 -3 17 -1 17 5 0 22 30 39 69 39 23 0 41 -5 41 -10 0 -7 6 -7 19 0
11 5 30 10 42 10 26 0 20 10 -8 14 -10 1 -29 19 -42 39 -20 31 -28 35 -52 30
-18 -3 -29 -1 -29 6 0 6 11 11 25 11 14 0 25 5 25 10 0 6 8 10 17 10 21 0 6
16 -22 23 -13 3 -8 5 13 6 25 1 35 6 39 21 3 11 10 20 15 20 5 0 2 7 -6 16 -9
8 -16 20 -16 25 0 14 28 11 33 -3 3 -7 6 -4 7 7 1 11 4 29 6 40 15 72 15 102
0 118 -20 20 -21 37 -1 37 9 0 15 9 15 25 0 14 -4 25 -9 25 -13 0 -24 91 -13
102 13 13 4 38 -13 38 -8 0 -13 13 -12 35 1 32 17 52 17 23 0 -10 3 -9 9 1 5
7 7 34 5 60 -3 25 -5 63 -5 84 0 20 -5 37 -10 37 -36 0 -62 92 -49 175 6 36 4
45 -7 41 -7 -3 -13 1 -13 9 0 8 -4 15 -10 15 -5 0 -10 9 -10 19 0 33 -11 51
-31 51 -10 0 -19 5 -19 12 0 6 -7 3 -15 -8 -13 -17 -14 -17 -15 -1 0 18 -20
25 -20 7 0 -5 -5 -10 -11 -10 -8 0 -7 5 1 15 7 9 13 40 13 70 0 30 4 55 8 55
5 0 9 -5 9 -11 0 -5 5 -7 11 -3 6 3 15 0 20 -7 6 -11 11 -11 21 -1 9 9 9 12
-5 12 -9 0 -17 7 -17 15 0 8 7 15 15 15 9 0 18 6 21 14 3 8 11 14 17 12 7 -1
9 -1 5 1 -15 9 -8 53 7 53 9 0 19 10 24 22 5 14 10 17 15 10 10 -16 36 -15 36
1 0 7 5 18 12 25 9 9 15 7 25 -7 8 -12 28 -20 53 -23z m-197 -21 c3 -8 1 -20
-4 -28 -6 -10 -9 -7 -9 14 0 29 5 35 13 14z m-88 -75 c-8 -8 -25 17 -25 38 0
9 6 6 16 -8 9 -13 13 -26 9 -30z m927 -452 c27 0 28 -2 28 -54 0 -30 -4 -58
-10 -61 -5 -3 -10 -1 -10 4 0 6 -4 11 -10 11 -5 0 -11 -15 -11 -32 l-1 -33 -8
38 c-9 46 -20 60 -20 24 0 -14 -5 -29 -11 -33 -6 -3 -9 -14 -6 -24 3 -11 -6
-29 -23 -45 -25 -24 -29 -25 -43 -11 -9 9 -19 16 -24 16 -5 0 -16 13 -26 29
-15 25 -16 37 -7 77 6 26 8 49 5 52 -9 9 75 43 87 36 7 -5 9 -2 5 8 -5 14 -1
15 26 7 18 -5 44 -9 59 -9z m-1062 -50 c0 -6 11 -16 25 -22 26 -12 32 -24 15
-30 -6 -2 -6 -18 0 -42 10 -47 5 -59 -21 -51 -14 5 -19 2 -19 -12 0 -22 -43
-64 -56 -55 -5 4 -16 20 -24 35 -8 16 -16 24 -18 18 -2 -6 -11 -11 -19 -11
-12 0 -14 7 -9 33 5 29 3 35 -19 45 -14 6 -25 16 -25 22 0 5 -4 10 -10 10 -5
0 -10 -15 -11 -32 0 -31 -1 -32 -11 -10 -6 12 -17 22 -25 22 -7 0 -13 5 -13
10 0 6 5 10 11 10 5 0 7 5 4 10 -12 20 7 32 25 15 17 -15 17 -14 13 30 -3 25
-3 45 0 45 15 0 57 -24 57 -32 0 -5 7 -3 15 6 8 8 15 19 15 24 0 5 11 7 25 4
17 -3 25 0 25 9 0 8 11 2 25 -13 14 -15 25 -32 25 -38z m287 8 c-3 -8 -6 -5
-6 6 -1 11 2 17 5 13 3 -3 4 -12 1 -19z m836 -45 c-3 -7 -10 -13 -15 -13 -6 0
-7 7 -4 16 3 9 6 21 6 27 0 7 4 7 9 -2 5 -8 7 -20 4 -28z m-813 17 c0 -5 -5
-10 -11 -10 -5 0 -7 5 -4 10 3 6 8 10 11 10 2 0 4 -4 4 -10z m-554 -37 c-10
-10 -19 5 -10 18 6 11 8 11 12 0 2 -7 1 -15 -2 -18z m151 -135 c-3 -8 -6 -5
-6 6 -1 11 2 17 5 13 3 -3 4 -12 1 -19z m380 0 c-3 -8 -6 -5 -6 6 -1 11 2 17
5 13 3 -3 4 -12 1 -19z m1134 -114 c37 -19 36 -52 -1 -72 -32 -16 -107 -10
-128 12 -15 15 -14 17 8 34 19 13 67 36 88 41 2 1 17 -6 33 -15z m-1835 -3 c6
-1 24 -11 39 -22 l27 -22 -33 -14 c-25 -10 -40 -11 -57 -4 -13 6 -32 11 -42
11 -15 0 -20 7 -20 28 0 30 3 31 86 23z m2054 -207 c0 -8 -4 -12 -10 -9 -5 3
-10 10 -10 16 0 5 5 9 10 9 6 0 10 -7 10 -16z m-2351 -48 c-1 -17 -2 -17 -6
-3 -2 9 -9 17 -14 17 -5 0 -9 7 -9 16 0 14 3 14 15 4 8 -7 14 -22 14 -34z
m1021 27 c0 -10 -4 -14 -8 -8 -4 6 -11 13 -16 18 -5 4 -2 7 7 7 10 0 17 -8 17
-17z m1357 -50 c-3 -10 -5 -4 -5 12 0 17 2 24 5 18 2 -7 2 -21 0 -30z m-1147
-13 c0 -11 -4 -20 -10 -20 -5 0 -10 9 -10 20 0 11 5 20 10 20 6 0 10 -9 10
-20z m53 -78 c-3 -12 -12 -22 -20 -22 -14 0 -11 10 10 38 13 17 17 11 10 -16z
m-333 -102 c0 -5 -8 -10 -17 -10 -15 0 -16 2 -3 10 19 12 20 12 20 0z m234
-115 c3 -9 0 -15 -9 -15 -8 0 -15 7 -15 15 0 8 4 15 9 15 5 0 11 -7 15 -15z
m1377 -339 c16 -17 10 -28 -6 -12 -8 8 -14 25 -14 38 1 20 2 21 6 3 3 -11 9
-24 14 -29z m-811 -44 c0 -8 15 -29 33 -47 17 -18 41 -49 51 -70 17 -30 18
-40 7 -57 -10 -17 -9 -22 8 -37 28 -24 40 -81 17 -81 -9 0 -16 5 -16 10 0 6
-9 10 -20 10 -11 0 -20 5 -20 10 0 6 -7 10 -15 10 -20 0 -20 -89 -1 -145 12
-34 19 -40 45 -43 28 -3 46 -22 21 -22 -5 0 -10 -9 -10 -19 0 -11 -9 -23 -20
-26 -23 -7 -20 -36 6 -66 17 -19 18 -55 2 -66 -7 -4 -23 -6 -35 -4 -34 4 -29
-26 8 -45 25 -12 30 -21 26 -40 -2 -13 2 -29 9 -35 21 -17 17 -38 -6 -32 -14
4 -20 0 -20 -11 0 -9 8 -16 20 -16 21 0 29 -33 10 -45 -5 -3 -10 -12 -10 -18
0 -7 4 -6 10 3 7 12 12 12 22 2 6 -6 20 -12 30 -12 26 0 22 -11 -17 -49 -30
-29 -39 -32 -69 -27 -25 5 -43 2 -61 -10 -24 -16 -35 -54 -15 -54 6 0 10 -10
10 -21 0 -17 -4 -20 -22 -15 -13 3 -28 6 -34 6 -21 0 -23 39 -3 64 22 28 23
38 7 54 -17 17 -38 83 -38 123 0 43 -8 53 -27 34 -8 -8 -18 -15 -23 -15 -12 0
-1 30 17 48 7 7 13 23 13 35 0 12 9 33 20 47 11 14 20 38 20 53 0 16 4 36 9
45 12 23 -4 62 -25 62 -34 0 -54 30 -54 80 0 53 16 68 52 49 47 -25 61 17 33
101 -23 69 -37 92 -72 123 -18 16 -33 37 -33 47 0 19 -19 30 -51 30 -10 0 -19
5 -19 10 0 6 -8 10 -17 10 -17 1 -17 1 0 11 10 6 17 22 17 39 0 26 5 31 42 41
40 10 43 10 68 -19 30 -36 45 -32 60 13 l11 34 25 -21 c13 -12 24 -28 24 -36z
m-1955 8 c0 -9 -11 -16 -28 -18 -26 -3 -27 -2 -15 18 14 23 43 23 43 0z m2772
-57 c-3 -10 -5 -4 -5 12 0 17 2 24 5 18 2 -7 2 -21 0 -30z m-1122 18 c8 -14
-13 -24 -33 -16 -14 5 -14 7 -2 15 19 12 27 12 35 1z m1095 -43 c0 -16 -3 -19
-11 -11 -6 6 -8 16 -5 22 11 17 16 13 16 -11z m-2210 -66 c0 -8 -50 -52 -61
-52 -5 0 -9 5 -9 10 0 6 9 10 20 10 11 0 20 5 20 10 0 6 -4 10 -10 10 -5 0
-10 4 -10 9 0 5 11 9 25 9 14 0 25 -3 25 -6z m2210 -2 c0 -5 -7 -10 -15 -10
-8 0 -15 5 -15 10 0 6 7 10 15 10 8 0 15 -4 15 -10z m-2306 -46 c9 -3 14 -10
11 -14 -3 -5 -1 -11 5 -15 5 -3 10 -1 10 4 0 6 11 11 26 11 24 0 25 -2 21 -50
-2 -27 -10 -57 -18 -66 -11 -13 -11 -18 -1 -21 28 -10 9 -23 -33 -21 -42 1
-45 3 -45 30 0 33 -10 36 -30 8 -24 -34 -46 -24 -41 18 2 17 -14 15 -29 -3
-19 -22 -28 -18 -22 10 3 17 11 25 24 25 11 0 26 7 35 15 14 14 13 15 -13 10
-24 -5 -26 -4 -11 5 9 6 17 18 17 25 0 9 10 15 23 15 12 0 29 5 37 10 18 12
15 11 34 4z m1058 -54 c30 -14 44 -38 25 -45 -6 -3 -72 -6 -144 -8 l-133 -4 0
24 c0 47 17 53 125 49 55 -1 112 -9 127 -16z m842 -35 c24 -5 26 -4 15 8 -8 8
-21 16 -29 20 -9 3 -4 6 13 6 15 1 27 -3 27 -9 0 -5 6 -10 14 -10 8 0 12 -7
10 -17 -2 -10 2 -26 10 -36 17 -21 86 -36 86 -18 0 7 4 10 9 7 18 -11 -47
-224 -71 -234 -15 -7 -60 -176 -58 -221 5 -95 2 -111 -21 -111 -11 0 -32 9
-46 20 -14 11 -31 20 -38 20 -27 0 -27 114 -1 133 7 5 3 14 -11 26 -13 11 -23
30 -23 43 -1 12 -7 34 -15 48 -18 31 -20 90 -2 90 6 0 3 6 -8 12 -26 15 -34
28 -28 45 3 7 -4 22 -16 32 -26 23 -27 41 -1 69 23 24 26 48 8 55 -7 3 6 6 29
6 23 1 45 6 48 11 3 6 1 10 -4 10 -6 0 -11 7 -11 16 0 10 5 14 15 10 9 -3 18
1 21 9 5 11 10 9 27 -9 12 -13 35 -27 51 -31z m-1854 -125 c0 -5 -4 -10 -10
-10 -5 0 -10 -7 -10 -15 0 -8 -7 -15 -15 -15 -8 0 -15 7 -15 15 0 8 7 15 15
15 8 0 15 5 15 10 0 6 5 10 10 10 6 0 10 -4 10 -10z m0 -366 c0 -14 -43 -42
-56 -37 -22 8 -17 31 9 36 37 7 47 7 47 1z m1716 -67 c-4 -16 -15 -26 -30 -29
-17 -4 -23 -1 -19 9 3 7 9 13 14 13 5 0 9 6 9 14 0 13 20 27 29 20 2 -2 1 -14
-3 -27z m-1730 -9 c5 -7 3 -8 -6 -3 -9 5 -10 2 -6 -13 8 -23 -5 -35 -28 -26
-24 9 -20 42 7 47 12 2 23 5 24 6 1 0 5 -4 9 -11z m1796 -52 c3 -17 1 -23 -8
-19 -9 3 -12 -14 -13 -68 0 -52 -5 -79 -18 -97 -24 -33 -29 -42 -42 -75 -6
-15 -16 -25 -21 -22 -17 11 -11 43 11 58 17 12 19 21 14 51 -4 20 -3 42 3 49
5 6 12 28 15 47 14 87 19 100 37 100 11 0 19 -9 22 -24z m75 -58 c0 -21 0 -38
-1 -38 -14 0 -46 42 -46 59 0 17 5 22 23 19 18 -2 22 -10 24 -40z m-488 26
c35 -7 39 -19 14 -46 -20 -23 -44 -23 -70 0 -16 13 -18 21 -9 35 12 19 19 20
65 11z m-56 -152 c-18 -5 -27 3 -18 17 4 7 10 7 20 -2 11 -10 11 -13 -2 -15z
m362 -132 c6 -10 -10 -47 -29 -65 -31 -30 -69 -54 -77 -49 -5 3 -12 -1 -15
-10 -7 -19 -34 -9 -34 13 1 19 21 46 35 46 18 0 85 50 85 63 0 14 26 16 35 2z
m-365 -327 c-1 -24 -2 -26 -11 -10 -5 9 -7 22 -4 27 10 17 15 11 15 -17z
m-333 -190 c-4 -17 -4 -17 -12 0 -4 9 -4 25 0 35 8 16 8 16 12 0 3 -10 3 -26
0 -35z m-20 -55 c-3 -7 -5 -2 -5 12 0 14 2 19 5 13 2 -7 2 -19 0 -25z m-7 -43
c0 -8 -4 -15 -10 -15 -5 0 -10 -7 -10 -17 0 -9 -2 -14 -5 -11 -9 8 6 58 16 58
5 0 9 -7 9 -15z m-293 -61 c-3 -3 -12 -4 -19 -1 -8 3 -5 6 6 6 11 1 17 -2 13
-5z m516 -249 c4 -8 2 -17 -3 -20 -6 -4 -10 3 -10 14 0 25 6 27 13 6z m-286
-10 c7 -12 16 -13 46 -4 32 9 43 7 73 -10 19 -11 41 -18 50 -14 14 5 15 3 4
-18 -18 -32 -32 -45 -58 -53 -16 -6 -22 -3 -22 8 0 10 -9 16 -25 16 -14 0 -25
-4 -25 -10 0 -5 -11 -10 -24 -10 -26 0 -48 -21 -50 -48 -3 -24 -27 -72 -38
-72 -12 0 -10 44 4 58 7 7 8 13 3 13 -6 1 -17 2 -25 3 -19 1 -18 37 3 90 22
58 66 85 84 51z"/>
<path d="M7352 5415 c0 -16 2 -22 5 -12 2 9 2 23 0 30 -3 6 -5 -1 -5 -18z"/>
<path d="M7203 4743 c-10 -3 -10 -8 1 -19 20 -19 26 -18 26 6 0 20 -5 23 -27
13z"/>
<path d="M7190 4670 c0 -5 5 -10 10 -10 6 0 10 5 10 10 0 6 -4 10 -10 10 -5 0
-10 -4 -10 -10z"/>
<path d="M7182 4590 c0 -14 2 -19 5 -12 2 6 2 18 0 25 -3 6 -5 1 -5 -13z"/>
<path d="M7197 4554 c-3 -4 1 -13 9 -21 19 -20 26 -13 10 9 -7 10 -16 15 -19
12z"/>
<path d="M7202 4474 c-11 -12 -10 -17 2 -30 15 -14 16 -12 16 15 0 35 0 36
-18 15z"/>
<path d="M7220 4409 c0 -5 9 -9 20 -9 11 0 20 2 20 4 0 2 -9 6 -20 9 -11 3
-20 1 -20 -4z"/>
<path d="M7280 4350 c0 -19 3 -21 12 -12 9 9 9 15 0 24 -9 9 -12 7 -12 -12z"/>
<path d="M7246 4315 c4 -8 13 -15 21 -15 12 0 12 2 -1 15 -8 8 -17 15 -20 15
-3 0 -3 -7 0 -15z"/>
<path d="M7210 4180 c0 -5 -9 -10 -20 -10 -10 0 -24 -9 -29 -19 -9 -15 -7 -20
10 -24 16 -4 19 -2 14 14 -4 10 -2 19 4 19 5 0 16 3 25 6 12 4 16 0 16 -16 0
-11 4 -19 10 -15 6 3 5 15 -2 30 -11 25 -28 34 -28 15z"/>
<path d="M6850 4750 c0 -5 5 -10 10 -10 6 0 10 5 10 10 0 6 -4 10 -10 10 -5 0
-10 -4 -10 -10z"/>
<path d="M7770 3546 c-15 -30 -10 -56 15 -70 10 -6 25 -17 33 -23 27 -25 52
-9 52 32 0 16 -36 55 -66 72 -18 10 -23 8 -34 -11z"/>
<path d="M7863 2753 c-7 -3 -13 -11 -13 -19 0 -16 18 -18 38 -5 11 6 11 10 0
18 -7 6 -19 8 -25 6z"/>
<path d="M6326 3383 c-6 -14 -5 -15 5 -6 7 7 10 15 7 18 -3 3 -9 -2 -12 -12z"/>
<path d="M8190 3321 c0 -5 5 -11 11 -13 6 -2 12 -16 12 -31 1 -15 8 -27 15
-27 9 0 10 5 3 19 -6 10 -8 21 -4 24 3 3 -2 13 -10 22 -18 17 -27 19 -27 6z"/>
<path d="M8164 3246 c-2 -30 16 -39 36 -18 13 14 12 15 -2 10 -12 -5 -15 -2
-11 13 3 12 0 19 -8 19 -8 0 -15 -11 -15 -24z"/>
<path d="M8270 3221 c0 -6 -7 -11 -15 -11 -9 0 -15 -10 -15 -26 0 -14 -4 -23
-9 -20 -5 3 -16 -5 -25 -19 -9 -14 -23 -25 -31 -25 -8 0 -15 -7 -15 -16 0 -12
7 -15 25 -12 14 3 30 -1 36 -9 9 -10 15 -10 25 -2 7 6 18 8 24 4 5 -3 10 -1
10 5 0 7 6 10 13 7 16 -6 12 83 -4 94 -6 4 -9 11 -5 17 3 6 2 13 -4 17 -5 3
-10 1 -10 -4z m-37 -95 c4 -10 1 -13 -9 -9 -7 3 -14 9 -14 14 0 14 17 10 23
-5z"/>
<path d="M8210 3200 c0 -5 5 -10 10 -10 6 0 10 5 10 10 0 6 -4 10 -10 10 -5 0
-10 -4 -10 -10z"/>
<path d="M8251 3064 c-2 -18 -33 -26 -42 -12 -6 9 -10 7 -15 -6 -5 -14 -1 -25
15 -38 25 -20 46 -24 36 -8 -4 6 -1 17 5 25 6 8 10 22 7 32 -3 10 -5 13 -6 7z"/>
<path d="M8190 2989 c0 -10 24 -39 33 -39 3 0 0 11 -6 25 -12 25 -27 33 -27
14z"/>
<path d="M8230 2871 c0 -5 7 -11 14 -14 10 -4 13 -1 9 9 -6 15 -23 19 -23 5z"/>
<path d="M6826 2104 c-13 -33 -3 -94 15 -94 4 0 11 15 14 34 11 54 -13 102
-29 60z"/>
<path d="M6900 2050 c0 -19 5 -30 14 -30 18 0 29 42 13 52 -21 13 -27 9 -27
-22z"/>
<path d="M7508 1741 c-24 -24 -23 -31 6 -31 24 0 41 23 30 41 -8 13 -16 10
-36 -10z"/>
<path d="M6590 1510 c0 -5 5 -10 10 -10 6 0 10 5 10 10 0 6 -4 10 -10 10 -5 0
-10 -4 -10 -10z"/>
<path d="M7242 476 c-18 -20 -32 -40 -32 -46 0 -6 -4 -18 -9 -28 -13 -23 -31
-104 -31 -137 0 -20 30 -96 45 -113 2 -2 21 -5 42 -8 35 -4 40 -2 56 28 17 33
18 47 18 201 0 63 -3 77 -16 77 -8 0 -15 6 -15 13 0 7 -6 21 -13 31 -12 16
-15 14 -45 -18z"/>
</g>
</svg>
