<svg width="74" height="74" viewBox="0 0 74 74" fill="none" xmlns="http://www.w3.org/2000/svg">
<path d="M62.8463 11.1537C62.1999 8.65625 60.8987 6.37658 59.077 4.55002C53.5403 -0.986645 43.875 -0.986645 38.3383 4.55002C36.0437 6.85189 34.5766 9.84936 34.1666 13.0736C33.7566 16.2979 34.4268 19.5671 36.0723 22.37L22.4543 35.988C16.936 32.7247 9.28733 33.6084 4.63433 38.254C1.88722 41.0065 0.34436 44.7364 0.34436 48.6252C0.34436 52.514 1.88722 56.2439 4.63433 58.9964C6.45911 60.8185 8.73773 62.1199 11.2343 62.7657C11.887 65.2627 13.1777 67.5397 15.0037 69.3657C16.3608 70.7339 17.9764 71.8188 19.7566 72.5571C21.5367 73.2955 23.4458 73.6726 25.373 73.6667C27.2997 73.6717 29.2083 73.2945 30.9882 72.5568C32.7681 71.8192 34.384 70.7358 35.7423 69.3693C38.0366 67.068 39.5032 64.0709 39.9126 60.8471C40.322 57.6233 39.651 54.3548 38.0047 51.553L51.6227 37.935C57.1483 41.202 64.797 40.3184 69.4463 35.6654C72.1932 32.9135 73.736 29.1842 73.736 25.296C73.736 21.4078 72.1932 17.6785 69.4463 14.9267C67.6224 13.1026 65.3436 11.7999 62.8463 11.1537ZM64.2653 30.4807C61.4933 33.249 56.6643 33.2527 53.8923 30.4807L51.3 27.8884L27.969 51.223L30.5613 53.8154C31.9334 55.192 32.7039 57.0564 32.7039 59C32.7039 60.9437 31.9334 62.8081 30.5613 64.1847C27.7857 66.9604 22.9567 66.953 20.1883 64.1847C18.9117 62.9035 18.1643 61.1886 18.0947 59.3814L17.9223 56.0814L14.6223 55.909C12.8158 55.8362 11.102 55.0892 9.819 53.8154C8.44578 52.4386 7.67461 50.5734 7.67461 48.6289C7.67461 46.6843 8.44578 44.8191 9.819 43.4424C11.2013 42.06 13.042 41.2974 15 41.2974C16.958 41.2974 18.7987 42.06 20.1847 43.4424L22.777 46.0347L46.1117 22.7037L43.5193 20.1114C42.1461 18.7346 41.3749 16.8694 41.3749 14.9249C41.3749 12.9803 42.1461 11.1151 43.5193 9.73835C46.2913 6.97369 51.1167 6.97369 53.8887 9.73835C55.1463 10.996 55.8907 12.7047 55.986 14.549L56.162 17.838L59.451 18.014C61.2953 18.1094 63.004 18.8537 64.2617 20.1114C65.644 21.4974 66.4067 23.338 66.4067 25.296C66.4067 27.254 65.6477 29.0947 64.2653 30.4807Z" fill="#F5B700"/>
</svg>
