<svg width="70" height="70" viewBox="0 0 70 70" fill="none" xmlns="http://www.w3.org/2000/svg">
<path d="M60.2098 12.0802C60.0752 9.195 58.8736 6.46264 56.8382 4.41336C55.7533 3.31651 54.4623 2.44493 53.0394 1.84873C51.6166 1.25253 50.0899 0.943465 48.5471 0.939312C47.0044 0.93516 45.4761 1.236 44.05 1.82454C42.624 2.41307 41.3283 3.27769 40.2375 4.36868C39.1468 5.45968 38.2824 6.75552 37.6942 8.1817C37.106 9.60789 36.8055 11.1363 36.8099 12.679C36.8144 14.2217 37.1238 15.7484 37.7203 17.1711C38.3168 18.5939 39.1887 19.8847 40.2857 20.9693L20.9728 40.2857C19.8882 39.1886 18.5974 38.3168 17.1746 37.7203C15.7519 37.1238 14.2253 36.8144 12.6825 36.8099C11.1398 36.8054 9.61143 37.1059 8.18524 37.6942C6.75906 38.2824 5.46322 39.1468 4.37222 40.2375C3.28123 41.3283 2.41661 42.6239 1.82808 44.05C1.23954 45.4761 0.9387 47.0044 0.942852 48.5471C0.947005 50.0898 1.25607 51.6165 1.85227 53.0394C2.44847 54.4623 3.32006 55.7533 4.4169 56.8381C6.54522 58.9665 9.29869 60.0622 12.0838 60.2097C12.2313 62.9948 13.327 65.7448 15.4554 67.8766C16.5402 68.9734 17.8312 69.845 19.2541 70.4412C20.677 71.0374 22.2037 71.3465 23.7464 71.3506C25.2891 71.3548 26.8174 71.054 28.2435 70.4654C29.6696 69.8769 30.9652 69.0123 32.056 67.9213C33.1467 66.8303 34.0111 65.5344 34.5993 64.1083C35.1875 62.6821 35.4881 61.1537 35.4836 59.6109C35.4791 58.0682 35.1697 56.5416 34.5732 55.1188C33.9767 53.6961 33.1049 52.4053 32.0078 51.3207L51.3207 32.0077C52.4053 33.1048 53.6961 33.9767 55.1189 34.5732C56.5416 35.1697 58.0682 35.4791 59.611 35.4836C61.1537 35.488 62.6821 35.1875 64.1083 34.5993C65.5345 34.0111 66.8303 33.1467 67.9213 32.056C69.0123 30.9652 69.8769 29.6695 70.4654 28.2435C71.054 26.8174 71.3548 25.2891 71.3507 23.7464C71.3465 22.2036 71.0375 20.6769 70.4412 19.2541C69.845 17.8312 68.9735 16.5402 67.8766 15.4553C65.8287 13.4175 63.0958 12.2144 60.2098 12.0802V12.0802Z" fill="#F9F5EA"/>
</svg>
