<svg width="73" height="82" viewBox="0 0 73 82" fill="none" xmlns="http://www.w3.org/2000/svg">
<path d="M35.937 21.7877C38.4708 24.7836 38.0962 29.265 35.1003 31.7987C32.1095 34.3281 27.6187 33.9527 25.0893 30.9619C22.5556 27.966 22.9302 23.4847 25.9261 20.9509C28.922 18.4172 33.4033 18.7918 35.937 21.7877ZM22.5557 61.2742C20.0219 58.2783 20.3965 53.797 23.3924 51.2633L43.1 34.5961C46.0959 32.0623 50.5773 32.4369 53.111 35.4328C55.6447 38.4287 55.2701 42.9101 52.2742 45.4438L32.5666 62.111C29.5707 64.6447 25.0894 64.2702 22.5557 61.2742ZM25.3323 2.58686C26.3312 3.76803 26.1834 5.53642 25.0023 6.53537C23.8187 7.53633 22.0533 7.38721 21.0537 6.20534C20.0548 5.02417 20.2026 3.25577 21.3838 2.25682C22.565 1.25787 24.3334 1.40569 25.3323 2.58686ZM10.2983 18.1185C12.0645 20.2069 11.8025 23.3326 9.71485 25.0982C7.62719 26.8638 4.50131 26.6032 2.7351 24.5148C0.968904 22.4265 1.23084 19.3007 3.3185 17.5351C5.40617 15.7695 8.53205 16.0301 10.2983 18.1185ZM25.5849 39.8461L18.6773 45.688C12.6026 50.8256 11.8429 59.9147 16.9804 65.9894C22.118 72.0641 31.2071 72.8238 37.2818 67.6863L56.9893 51.019C63.0641 45.8815 63.8238 36.7924 58.6862 30.7177C55.18 26.5719 49.839 24.9398 44.8786 25.9336C44.8079 23.2939 44.0237 20.6546 42.4688 18.3391C47.2134 15.2191 53.5849 16.0083 57.409 20.53L68.5205 33.6684C72.5881 38.478 71.9866 45.6742 67.177 49.7419L34.3311 77.5205C29.5214 81.5882 22.3252 80.9867 18.2576 76.177L7.14614 63.0387C3.00792 58.1456 3.67314 51.0386 8.48963 46.9652L20.5436 36.7708C22.0316 38.1902 23.746 39.1912 25.5849 39.8461Z" stroke="#F5B700" stroke-width="3"/>
</svg>
