<svg width="97" height="56" viewBox="0 0 97 56" fill="none" xmlns="http://www.w3.org/2000/svg">
<path d="M45.5 2.02941C23.5 2.52941 16 8.02948 14 10.5294C12 13.0293 2 32.5295 2 36.5294C2 40.5293 3 40.5295 5.5 43.0294C6.76851 44.2979 11.7851 47.1343 17.5 49.0293C23.0482 50.869 29.2833 51.7831 31.5 52.0294C36 52.5295 56 54.3072 68.5 51.5293C68.5 51.5293 76.5 50.0293 79.5 49.0293C82.5 48.0293 87 46.0293 90.5 43.5293C94 41.0293 95 38.5293 95 36.5294C95 34.5295 86 13.5293 83.5 10.5294C81 7.52948 67.5 1.52941 45.5 2.02941Z" fill="#F9F5EA" stroke="#F5B700" stroke-width="4"/>
<path d="M74.6514 13.3241C75.7997 14.0144 75.9707 14.4545 75.9958 14.5293C75.9707 14.6041 75.7997 15.0442 74.6514 15.7345C73.3974 16.4882 71.4497 17.2376 68.8669 17.8943C63.7315 19.1998 56.5299 20.0293 48.5 20.0293C40.4701 20.0293 33.2685 19.1998 28.1331 17.8943C25.5503 17.2376 23.6026 16.4882 22.3486 15.7345C21.2003 15.0442 21.0293 14.6041 21.0042 14.5293C21.0293 14.4545 21.2003 14.0144 22.3486 13.3241C23.6026 12.5704 25.5503 11.821 28.1331 11.1643C33.2685 9.85875 40.4701 9.0293 48.5 9.0293C56.5299 9.0293 63.7315 9.85875 68.8669 11.1643C71.4497 11.821 73.3974 12.5704 74.6514 13.3241Z" fill="#F9F5EA" stroke="#F5B700" stroke-width="4"/>
<g clip-path="url(#clip0_37_20)">
<path d="M47.8438 31.0312C47.8438 31.5 47.7638 31.9434 47.604 32.3613C47.4441 32.7793 47.1791 33.1406 46.8089 33.4453C46.4387 33.75 45.997 33.9023 45.4838 33.9023C44.8444 33.9023 44.2638 33.6777 43.7422 33.2285C43.2206 32.7793 42.8335 32.25 42.5811 31.6406C42.3287 31.0312 42.2025 30.4414 42.2025 29.8711C42.2025 29.4023 42.2825 28.959 42.4423 28.541C42.6022 28.123 42.8672 27.7617 43.2374 27.457C43.6076 27.1523 44.0493 27 44.5625 27C45.2103 27 45.793 27.2246 46.3104 27.6738C46.8278 28.123 47.2127 28.6504 47.4651 29.2559C47.7175 29.8613 47.8438 30.4531 47.8438 31.0312ZM43.5276 36.6914C43.5276 37.3164 43.351 37.8594 42.9976 38.3203C42.6442 38.7812 42.1436 39.0117 41.4958 39.0117C40.8564 39.0117 40.2611 38.7949 39.71 38.3613C39.159 37.9277 38.7362 37.4062 38.4417 36.7969C38.1472 36.1875 38 35.5938 38 35.0156C38 34.3906 38.1767 33.8457 38.53 33.3809C38.8834 32.916 39.384 32.6836 40.0319 32.6836C40.6713 32.6836 41.2665 32.9004 41.8176 33.334C42.3687 33.7676 42.7915 34.291 43.0859 34.9043C43.3804 35.5176 43.5276 36.1133 43.5276 36.6914ZM48.5 36.375C49.4928 36.375 50.5655 36.7559 51.7181 37.5176C52.8708 38.2793 53.8341 39.2051 54.6082 40.2949C55.3822 41.3848 55.7692 42.3789 55.7692 43.2773C55.7692 43.6367 55.6977 43.9355 55.5547 44.1738C55.4117 44.4121 55.2076 44.5879 54.9426 44.7012C54.6776 44.8145 54.4062 44.8926 54.1286 44.9355C53.851 44.9785 53.5312 45 53.1695 45C52.5974 45 51.8086 44.8242 50.8032 44.4727C49.7978 44.1211 49.03 43.9453 48.5 43.9453C47.9447 43.9453 47.1349 44.1191 46.0706 44.4668C45.0063 44.8145 44.1629 44.9883 43.5403 44.9883C42.0006 44.9883 41.2308 44.418 41.2308 43.2773C41.2308 42.6055 41.4663 41.8574 41.9375 41.0332C42.4087 40.209 42.9955 39.457 43.698 38.7773C44.4005 38.0977 45.1893 37.5273 46.0643 37.0664C46.9393 36.6055 47.7512 36.375 48.5 36.375ZM51.5162 33.9023C51.003 33.9023 50.5613 33.75 50.1911 33.4453C49.8209 33.1406 49.5559 32.7793 49.396 32.3613C49.2362 31.9434 49.1562 31.5 49.1562 31.0312C49.1562 30.4531 49.2825 29.8613 49.5349 29.2559C49.7873 28.6504 50.1722 28.123 50.6896 27.6738C51.207 27.2246 51.7897 27 52.4375 27C52.9507 27 53.3924 27.1523 53.7626 27.457C54.1328 27.7617 54.3978 28.123 54.5577 28.541C54.7175 28.959 54.7975 29.4023 54.7975 29.8711C54.7975 30.4414 54.6713 31.0312 54.4189 31.6406C54.1665 32.25 53.7794 32.7793 53.2578 33.2285C52.7362 33.6777 52.1556 33.9023 51.5162 33.9023ZM56.9681 32.6836C57.616 32.6836 58.1166 32.916 58.47 33.3809C58.8233 33.8457 59 34.3906 59 35.0156C59 35.5938 58.8528 36.1875 58.5583 36.7969C58.2638 37.4062 57.841 37.9277 57.29 38.3613C56.7389 38.7949 56.1436 39.0117 55.5042 39.0117C54.8564 39.0117 54.3558 38.7812 54.0024 38.3203C53.649 37.8594 53.4724 37.3164 53.4724 36.6914C53.4724 36.1133 53.6196 35.5176 53.9141 34.9043C54.2085 34.291 54.6313 33.7676 55.1824 33.334C55.7335 32.9004 56.3287 32.6836 56.9681 32.6836Z" fill="#F5B700"/>
</g>
<defs>
<clipPath id="clip0_37_20">
<rect width="21" height="18" fill="white" transform="translate(38 27)"/>
</clipPath>
</defs>
</svg>
